<?xml version="1.0" encoding="utf-8"?>
<!-- Generator: Adobe Illustrator 27.5.0, SVG Export Plug-In . SVG Version: 6.00 Build 0)  -->
<svg version="1.1" id="Layer_1" xmlns="http://www.w3.org/2000/svg" xmlns:xlink="http://www.w3.org/1999/xlink" x="0px" y="0px"
	 viewBox="0 0 461.98 178.49" style="enable-background:new 0 0 461.98 178.49;" xml:space="preserve">
<style type="text/css">
	.st0{fill:#00205C;}
</style>
<g>
	<polygon class="st0" points="215.79,103.64 215.79,85.31 209.02,103.64 201.11,103.64 194.42,85.39 194.42,103.64 184.37,103.64 
		184.37,75.02 197.95,75.02 205.17,93.7 212.38,75.02 225.92,75.02 225.92,103.64 	"/>
	<path class="st0" d="M269.98,95.97c-0.27,0.46-0.54,0.9-0.81,1.32c-0.27,0.42-0.64,0.9-1.09,1.44c-0.89,1.08-1.86,1.98-2.9,2.69
		c-1.04,0.71-2.12,1.29-3.24,1.73c-1.12,0.44-2.26,0.75-3.43,0.94c-1.16,0.19-2.32,0.28-3.49,0.28c-2.86,0-5.31-0.47-7.34-1.4
		c-2.03-0.93-3.69-2.14-4.98-3.61c-1.29-1.47-2.24-3.11-2.84-4.91c-0.6-1.8-0.9-3.55-0.9-5.25c0-2.16,0.41-4.17,1.22-6.02
		c0.81-1.85,1.94-3.45,3.38-4.78c1.44-1.34,3.14-2.38,5.1-3.14c1.96-0.76,4.07-1.14,6.34-1.14c1.57,0,3.06,0.18,4.48,0.55
		c1.42,0.37,2.74,0.87,3.95,1.52c0.81,0.46,1.52,0.94,2.13,1.44c0.61,0.5,1.14,1,1.6,1.5c0.46,0.5,0.85,0.99,1.17,1.48
		c0.33,0.49,0.62,0.95,0.89,1.38l-2.39,1.34c-0.24-0.41-0.47-0.78-0.69-1.12c-0.22-0.34-0.53-0.75-0.93-1.24
		c-1.22-1.51-2.72-2.61-4.52-3.28c-1.8-0.68-3.64-1.01-5.53-1.01c-1.92,0-3.69,0.32-5.31,0.96c-1.62,0.64-3.02,1.51-4.2,2.64
		c-1.18,1.12-2.09,2.46-2.74,4.02c-0.65,1.56-0.97,3.27-0.97,5.14c0,1.65,0.3,3.24,0.89,4.75c0.59,1.52,1.46,2.84,2.59,3.98
		c1.14,1.14,2.52,2.05,4.16,2.72c1.64,0.68,3.49,1.01,5.57,1.01c2,0,3.71-0.28,5.13-0.83c1.42-0.56,2.62-1.22,3.59-1.99
		c0.97-0.77,1.74-1.55,2.31-2.35c0.57-0.8,1-1.44,1.3-1.93L269.98,95.97z"/>
	<polygon class="st0" points="278.5,103.64 278.5,75.02 281.29,75.02 281.29,101.24 302.13,101.24 302.13,103.64 	"/>
	<path class="st0" d="M340.03,91.96c0,4.35-1.2,7.51-3.59,9.47c-2.39,1.96-6.02,2.94-10.88,2.94c-4.92,0-8.57-0.97-10.94-2.92
		c-2.38-1.94-3.57-5-3.57-9.16V74.98h2.67v17.07c0,1.81,0.27,3.34,0.81,4.58c0.54,1.24,1.31,2.25,2.33,3.02
		c1.01,0.77,2.25,1.32,3.72,1.64c1.47,0.32,3.14,0.49,5,0.49c2.19,0,4.03-0.2,5.54-0.61c1.51-0.41,2.73-1.02,3.66-1.84
		c0.93-0.82,1.6-1.88,2.02-3.16c0.42-1.28,0.63-2.82,0.63-4.6V74.98h2.59V91.96z"/>
	<path class="st0" d="M382.96,95.8c0,1.17-0.21,2.29-0.63,3.37c-0.42,1.08-1.09,1.99-2.01,2.72c-0.51,0.41-1.07,0.72-1.68,0.95
		c-0.61,0.23-1.21,0.41-1.8,0.53c-0.6,0.12-1.16,0.2-1.68,0.22c-0.53,0.03-0.98,0.04-1.36,0.04h-22.3V75.02h20.67
		c0.57,0,1.14,0.01,1.72,0.02c0.58,0.01,1.16,0.08,1.74,0.2c0.58,0.12,1.16,0.3,1.72,0.52c0.57,0.23,1.11,0.57,1.62,1.03
		c0.78,0.62,1.4,1.4,1.84,2.33c0.45,0.93,0.67,1.95,0.67,3.06c0,0.7-0.11,1.42-0.32,2.14c-0.22,0.73-0.54,1.38-0.97,1.94
		c-0.6,0.78-1.25,1.32-1.97,1.6c-0.72,0.28-1.29,0.49-1.72,0.63c0.38,0.05,0.74,0.11,1.09,0.16c0.35,0.05,0.76,0.18,1.22,0.36
		c1.27,0.54,2.28,1.41,3.02,2.62C382.59,92.84,382.96,94.23,382.96,95.8 M378.58,82.35c0-0.97-0.2-1.83-0.61-2.55
		c-0.4-0.73-0.9-1.28-1.5-1.66c-0.32-0.22-0.68-0.38-1.07-0.49c-0.39-0.11-0.78-0.19-1.18-0.24c-0.39-0.06-0.76-0.09-1.11-0.1
		c-0.35-0.01-0.65-0.02-0.89-0.02H354.3v10.13h17.47c0.4,0,0.84-0.01,1.3-0.04c0.46-0.03,0.92-0.09,1.38-0.18
		c0.46-0.09,0.92-0.25,1.38-0.47c0.46-0.22,0.89-0.5,1.3-0.85c0.35-0.32,0.62-0.65,0.81-0.99c0.19-0.34,0.33-0.67,0.43-0.99
		c0.09-0.32,0.15-0.62,0.18-0.89C378.57,82.73,378.58,82.52,378.58,82.35 M380.12,95.85c0-1.13-0.19-2.03-0.57-2.7
		c-0.38-0.66-0.73-1.14-1.06-1.44c-0.4-0.46-0.93-0.81-1.56-1.05c-0.64-0.24-1.29-0.42-1.97-0.53c-0.68-0.11-1.32-0.18-1.93-0.2
		c-0.61-0.03-1.1-0.04-1.48-0.04H354.3v11.35h19.42c0.35,0,0.74-0.01,1.18-0.04c0.43-0.03,0.87-0.09,1.32-0.2
		c0.45-0.11,0.89-0.28,1.34-0.51c0.44-0.23,0.84-0.53,1.2-0.91c0.35-0.38,0.67-0.88,0.95-1.5
		C379.98,97.46,380.12,96.72,380.12,95.85"/>
</g>
<g>
	<path class="st0" d="M114.38,86.48c-7.5-13.87-16.96-27.22-35.36-34.34v71.8C98.11,123.3,103.9,105.85,114.38,86.48"/>
	<path class="st0" d="M86.76,125.99l-2.18,0.36h69.48V52.14C111.85,68.47,115.08,120.54,86.76,125.99"/>
</g>
</svg>
